<svg xmlns="http://www.w3.org/2000/svg" viewBox="0 0 380 64" width="380" height="64">
  <defs>
    <linearGradient id="caBlue" x1="0%" y1="0%" x2="100%" y2="100%">
      <stop offset="0%" stop-color="#002b5c" />
      <stop offset="100%" stop-color="#001a38" />
    </linearGradient>
    <linearGradient id="caGreen" x1="0%" y1="0%" x2="100%" y2="100%">
      <stop offset="0%" stop-color="#22a856" />
      <stop offset="100%" stop-color="#198754" />
    </linearGradient>
  </defs>

  <!-- CA Emblem with Official ICAI Style Stylized Curves -->
  <g transform="translate(6, 7)">
    <!-- C Shape -->
    <path d="M 28 8 C 16 8 8 16 8 26 C 8 36 16 44 28 44 C 34 44 39 42 43 38 L 38 34 C 35 37 32 39 28 39 C 20 39 15 33 15 26 C 15 19 20 13 28 13 C 32 13 35 15 38 18 L 43 14 C 39 10 34 8 28 8 Z" fill="url(#caBlue)" />
    <!-- A Shape -->
    <path d="M 33 44 L 40 8 L 46 8 L 53 44 L 47 44 L 45.5 35 L 40.5 35 L 39 44 Z M 41.5 30 L 44.5 30 L 43 18 Z" fill="url(#caBlue)" />
    <!-- Green Dynamic Swoosh -->
    <path d="M 22 22 C 32 12 46 14 52 14 C 40 26 28 28 22 22 Z" fill="url(#caGreen)" />
  </g>

  <!-- Divider Line -->
  <line x1="68" y1="12" x2="68" y2="52" stroke="#e2e8f0" stroke-width="1.5" stroke-linecap="round" />

  <!-- Typography -->
  <!-- Main Title: NATASHA & CO. -->
  <text x="78" y="32" font-family="'Montserrat', 'Poppins', 'Segoe UI', sans-serif" font-size="20" font-weight="900" fill="#001f3f" letter-spacing="1">NATASHA &amp; CO.</text>
  
  <!-- Subtitle: CHARTERED ACCOUNTANTS -->
  <text x="79" y="47" font-family="'Poppins', 'Segoe UI', sans-serif" font-size="8.5" font-weight="700" fill="#198754" letter-spacing="2.6">CHARTERED ACCOUNTANTS</text>
</svg>